HIERARCHY
ROOT root
{
	OFFSET 0.000000 0.000000 0.000000
	CHANNELS 6 Xposition Yposition Zposition Zrotation Yrotation Xrotation
	JOINT lhip
	{
		OFFSET 0.058581 -0.082280 -0.017664
		CHANNELS 3 Zrotation Yrotation Xrotation
		JOINT lknee
		{
			OFFSET 0.043451 -0.386469 0.008037
			CHANNELS 3 Zrotation Yrotation Xrotation
			JOINT lankle
			{
				OFFSET -0.014790 -0.426874 -0.037428
				CHANNELS 3 Zrotation Yrotation Xrotation
				JOINT ltoe
				{
					OFFSET 0.041054 -0.060286 0.122042
					CHANNELS 3 Zrotation Yrotation Xrotation
					End Site
					{
						OFFSET 0.000000 0.000000 0.000000
					}
				}
			}
		}
	}
	JOINT rhip
	{
		OFFSET -0.060310 -0.090513 -0.013543
		CHANNELS 3 Zrotation Yrotation Xrotation
		JOINT rknee
		{
			OFFSET -0.043257 -0.383688 -0.004843
			CHANNELS 3 Zrotation Yrotation Xrotation
			JOINT rankle
			{
				OFFSET 0.019056 -0.420046 -0.034562
				CHANNELS 3 Zrotation Yrotation Xrotation
				JOINT rtoe
				{
					OFFSET -0.034840 -0.062106 0.130323
					CHANNELS 3 Zrotation Yrotation Xrotation
					End Site
					{
						OFFSET 0.000000 0.000000 0.000000
					}
				}
			}
		}
	}
	JOINT lowerback
	{
		OFFSET 0.004439 0.124404 -0.038385
		CHANNELS 3 Zrotation Yrotation Xrotation
		JOINT upperback
		{
			OFFSET 0.004488 0.137956 0.026820
			CHANNELS 3 Zrotation Yrotation Xrotation
			JOINT chest
			{
				OFFSET -0.002265 0.056032 0.002855
				CHANNELS 3 Zrotation Yrotation Xrotation
				JOINT lowerneck
				{
					OFFSET -0.013390 0.211636 -0.033468
					CHANNELS 3 Zrotation Yrotation Xrotation
					JOINT upperneck
					{
						OFFSET 0.010113 0.088937 0.050410
						CHANNELS 3 Zrotation Yrotation Xrotation
						End Site
						{
							OFFSET 0.000000 0.000000 0.000000
						}
					}
				}
				JOINT lclavicle
				{
					OFFSET 0.071702 0.114000 -0.018898
					CHANNELS 3 Zrotation Yrotation Xrotation
					JOINT lshoulder
					{
						OFFSET 0.122921 0.045205 -0.019046
						CHANNELS 3 Zrotation Yrotation Xrotation
						JOINT lelbow
						{
							OFFSET 0.255332 -0.015649 -0.022946
							CHANNELS 3 Zrotation Yrotation Xrotation
							JOINT lwrist
							{
								OFFSET 0.265709 0.012698 -0.007375
								CHANNELS 3 Zrotation Yrotation Xrotation
								End Site
								{
									OFFSET 0.000000 0.000000 0.000000
								}
							}
						}
					}
				}
				JOINT rclavicle
				{
					OFFSET -0.082954 0.112472 -0.023707
					CHANNELS 3 Zrotation Yrotation Xrotation
					JOINT rshoulder
					{
						OFFSET -0.113228 0.046853 -0.008472
						CHANNELS 3 Zrotation Yrotation Xrotation
						JOINT relbow
						{
							OFFSET -0.260127 -0.014369 -0.031269
							CHANNELS 3 Zrotation Yrotation Xrotation
							JOINT rwrist
							{
								OFFSET -0.269108 0.006794 -0.006027
								CHANNELS 3 Zrotation Yrotation Xrotation
								End Site
								{
									OFFSET 0.000000 0.000000 0.000000
								}
							}
						}
					}
				}
			}
		}
	}
}
MOTION
Frames: 7
Frame Time: 0.033333
-0.705319 -0.454143 0.974462 123.020972 -1.776602 82.851643 -1.923240 -6.322950 -13.378039 -6.377414 2.839529 43.046023 2.117286 11.450640 -16.231725 0.000000 -0.000000 0.000000 5.278061 -0.529411 5.615446 -1.088802 2.183565 16.401754 -3.184399 -8.840378 -26.321637 0.000000 -0.000000 0.000000 -0.011991 4.951776 16.622664 1.203992 -0.112374 -0.292012 -0.774619 0.968842 4.099060 2.902307 4.091954 -6.445568 -4.086218 -3.647259 17.573043 -30.935745 7.726725 -1.890974 -58.444898 -1.535667 8.982229 18.878167 -39.530543 -4.938979 9.687678 -2.895899 -14.155915 32.567233 2.347069 1.231526 55.792772 5.909718 15.907908 -17.931112 28.024934 -5.587587 -2.806658 3.481731 -4.915950 
-0.697827 -0.449086 0.974187 123.224119 -2.161761 82.781478 -1.720367 -6.604074 -15.279404 -5.878490 3.892210 40.789424 2.323612 12.006013 -16.795670 0.000000 -0.000000 0.000000 4.966156 -0.768394 6.435837 -1.253287 2.361643 16.198348 -3.073802 -8.999295 -26.827279 0.000000 -0.000000 0.000000 -0.243398 5.474283 17.152732 0.936437 -0.031224 -0.666922 -0.880740 1.376063 4.249748 2.923907 4.220205 -6.656372 -4.236816 -3.911898 17.621889 -30.879314 8.202603 -2.120701 -58.188276 -0.743613 8.910475 18.531107 -39.500157 -4.570159 9.771270 -2.641197 -14.172797 32.657235 2.687841 1.132193 55.968909 6.763246 16.196040 -18.189225 28.580676 -6.027645 -3.275013 3.648377 -5.082709 
-0.690066 -0.443158 0.973634 123.231725 -2.535636 82.723763 -1.613637 -6.875270 -16.621837 -5.332464 4.618452 36.362243 2.565164 12.745920 -17.434079 0.000000 -0.000000 0.000000 4.450602 -1.088827 7.312024 -1.325065 2.467812 15.871402 -3.144995 -8.587948 -27.527795 0.000000 -0.000000 0.000000 -0.207070 6.045351 17.931277 0.472665 0.115387 -1.049511 -1.004139 1.738312 4.253358 2.692562 4.539938 -7.055816 -4.345882 -4.372921 17.771618 -30.774813 8.458977 -2.286692 -58.090521 0.116742 8.684045 18.415198 -39.044750 -4.567387 9.998936 -2.915958 -14.046277 32.490327 2.974514 1.142059 56.322325 7.702068 16.260732 -18.428207 29.677478 -6.352473 -3.542997 4.005741 -5.143996 
-0.677828 -0.434368 0.971732 123.362012 -2.771894 82.704104 -1.462105 -6.671111 -17.577780 -4.660299 4.426811 29.064144 1.998075 12.475212 -16.552297 0.000000 -0.000000 0.000000 3.978401 -1.598949 8.790044 -1.357943 2.627082 14.996464 -3.246278 -8.252642 -28.044441 0.000000 -0.000000 0.000000 -0.203371 6.746417 17.883883 0.160752 0.370280 -0.284995 -0.937078 2.106275 4.303843 2.535656 4.678890 -7.367880 -4.567204 -5.004458 17.313913 -30.866021 8.402841 -2.376829 -58.093594 0.769355 8.578266 18.513057 -37.899232 -4.712528 9.813093 -3.240733 -13.665190 32.220829 3.773835 1.120112 56.191714 8.982326 16.312452 -18.896433 31.219533 -7.098785 -3.765401 4.557327 -5.562056 
-0.669847 -0.428496 0.970114 123.470196 -2.815869 82.877331 -1.316838 -6.746449 -17.956848 -4.395530 3.800730 23.987520 1.344783 12.157460 -15.725075 0.000000 -0.000000 0.000000 3.764561 -1.898302 9.475992 -1.282250 2.735235 14.705413 -2.486985 -8.051143 -28.337910 0.000000 -0.000000 0.000000 -0.171229 6.970030 17.963778 -0.027783 0.485515 -0.235964 -0.884107 2.413949 4.310924 2.426923 5.005697 -7.627015 -4.765177 -5.238706 17.265800 -30.911972 8.606009 -2.604330 -58.134744 1.314138 8.477952 18.491286 -37.083254 -4.703663 9.682432 -3.459304 -13.318716 32.142629 4.050946 1.111476 56.023306 9.689440 16.394149 -19.077297 32.227944 -7.425202 -4.039230 4.999037 -5.867987 
-0.657489 -0.420050 0.967064 123.428800 -2.625560 82.985000 -1.013707 -6.223207 -17.937455 -3.952305 2.453258 17.038969 0.904606 11.571481 -15.003388 0.000000 -0.000000 0.000000 3.764104 -2.319616 10.513491 -1.224241 2.916629 14.476146 -2.088523 -7.718668 -29.121185 0.000000 -0.000000 0.000000 -0.134800 7.219557 17.926784 -0.169885 0.816526 0.158168 -0.672527 2.682061 4.193357 2.467706 5.225390 -7.937862 -5.076974 -5.620998 17.428299 -30.925005 8.891267 -2.721826 -58.370227 1.962287 8.178862 18.556101 -36.211088 -4.874998 9.648952 -3.508825 -12.772512 31.943473 4.618251 1.175274 55.801687 10.681784 16.319944 -19.307297 33.401084 -7.900425 -4.668224 5.338760 -5.984867 
-0.643615 -0.409996 0.963257 123.426077 -2.418210 83.385170 -0.818813 -5.465966 -18.022028 -3.344471 1.084095 10.502489 0.345048 10.576991 -14.090228 0.000000 -0.000000 0.000000 3.564476 -2.935799 11.572360 -1.031841 3.232066 13.873874 -2.302412 -7.304489 -29.865081 0.000000 -0.000000 0.000000 -0.031032 7.316624 17.657230 -0.304215 1.054518 0.375814 -0.590207 3.085179 4.167403 2.460198 5.602733 -8.195906 -5.331877 -6.113290 17.342707 -31.088014 9.229839 -2.895070 -58.233571 2.668629 7.929699 18.186537 -35.433192 -4.672510 9.850379 -3.393568 -12.463024 31.949552 4.769663 1.082725 55.702096 11.764404 16.087359 -19.669557 34.273760 -8.449145 -5.006657 5.524830 -6.018065 
